#N canvas 421 52 869 769 12;
#X obj 14 17 table sample;
#N canvas 0 23 255 234 sampleLoad 0;
#X obj 25 104 soundfiler;
#X obj 25 52 openpanel;
#X obj 25 128 - 2;
#X obj 25 29 r s1_open;
#X obj 25 154 s s1_sampsize;
#X msg 25 78 read -resize \$1 sample;
#X connect 0 0 2 0;
#X connect 1 0 5 0;
#X connect 2 0 4 0;
#X connect 3 0 1 0;
#X connect 5 0 0 0;
#X restore 14 41 pd sampleLoad;
#X obj 114 29 bng 30 250 50 0 s1_open empty open_sample 0 -10 0 10
-4034 -1 -1;
#X msg 12 110 \; pd dsp 1;
#X msg 13 68 \; pd dsp 0;
#N canvas 678 127 526 300 output 0;
#X obj 21 62 catch~ L;
#X obj 144 58 catch~ R;
#X obj 21 246 dac~, f 18;
#X obj 40 101 r outVolL;
#X obj 162 94 r outVolR;
#X obj 21 210 *~;
#X obj 144 210 *~;
#X obj 272 239 writesf~ 2;
#X obj 272 141 i;
#X obj 307 141 + 1;
#X msg 302 89 1;
#X obj 302 65 loadbang;
#X obj 272 187 list prepend open;
#X obj 272 209 list trim;
#X msg 272 165 recording-\$1.wav;
#X obj 256 63 t b b;
#X msg 250 114 start;
#X obj 256 38 r recordStart;
#X obj 405 42 r recordStop;
#X msg 392 115 stop;
#X connect 0 0 5 0;
#X connect 1 0 6 0;
#X connect 3 0 5 1;
#X connect 4 0 6 1;
#X connect 5 0 2 0;
#X connect 5 0 7 0;
#X connect 6 0 2 1;
#X connect 6 0 7 1;
#X connect 8 0 9 0;
#X connect 8 0 14 0;
#X connect 9 0 8 1;
#X connect 10 0 8 1;
#X connect 11 0 10 0;
#X connect 12 0 13 0;
#X connect 13 0 7 0;
#X connect 14 0 12 0;
#X connect 15 0 16 0;
#X connect 15 1 8 0;
#X connect 16 0 7 0;
#X connect 17 0 15 0;
#X connect 18 0 19 0;
#X connect 19 0 7 0;
#X restore 12 150 pd output;
#X obj 187 28 vsl 20 128 0 1 0 0 outVolL empty L 0 -9 0 10 -257985
-1 -1 11400 1;
#X obj 213 28 vsl 20 128 0 1 0 0 outVolR outVolL R 0 -9 0 10 -257985
-1 -1 11400 1;
#N canvas 0 23 452 524 sound1 0;
#X obj 23 305 *~;
#X obj 23 245 tabread4~ sample;
#X obj 23 192 phasor~ 1, f 15;
#X obj 149 192 r s1_sampsize;
#X obj 23 218 *~;
#X text 128 305 adsr;
#X text 129 219 on/off (0 = off);
#X obj 22 428 *~;
#X obj 99 428 *~;
#X obj 22 456 throw~ L;
#X obj 99 456 throw~ R;
#X obj 120 339 hsl 190 15 -1 1 0 1 empty s1_randomPan pan -2 -8 0 10
-257985 -1 -1 8184 1;
#X obj 117 363 expr if($f1<0 \, $f1+1 \, $f1) \; if($f1>0 \, $f1-1
\, $f1);
#X obj 303 406 abs;
#X obj 125 37 random 1000;
#X obj 125 65 / 1000;
#X obj 125 11 bng 15 250 50 0 empty s1_randomTime empty 17 7 0 10 -262144
-1 -1;
#X obj 23 36 random 1000;
#X obj 23 10 bng 15 250 50 0 empty s1_randomSpeed empty 17 7 0 10 -262144
-1 -1;
#X obj 23 69 / 500;
#X obj 23 103 - 1;
#X msg 125 105 \$1 400;
#X obj 23 162 line~;
#X obj 125 139 line;
#X msg 23 130 \$1 250;
#X msg 172 284 0.8 700 \, 0.6 500 700 \, 0 500 1400;
#X obj 172 306 vline~;
#X obj 172 266 bng 15 250 50 0 empty s1_fire empty 17 7 0 10 -262144
-1 -1;
#X connect 0 0 7 0;
#X connect 0 0 8 0;
#X connect 1 0 0 0;
#X connect 2 0 4 0;
#X connect 3 0 4 1;
#X connect 4 0 1 0;
#X connect 7 0 9 0;
#X connect 8 0 10 0;
#X connect 11 0 12 0;
#X connect 12 0 8 1;
#X connect 12 1 13 0;
#X connect 13 0 7 1;
#X connect 14 0 15 0;
#X connect 15 0 21 0;
#X connect 16 0 14 0;
#X connect 17 0 19 0;
#X connect 18 0 17 0;
#X connect 19 0 20 0;
#X connect 20 0 24 0;
#X connect 21 0 23 0;
#X connect 22 0 2 0;
#X connect 23 0 2 1;
#X connect 24 0 22 0;
#X connect 25 0 26 0;
#X connect 26 0 0 1;
#X connect 27 0 25 0;
#X restore 11 180 pd sound1;
#N canvas 0 23 452 524 sound2 0;
#X obj 23 305 *~;
#X obj 23 245 tabread4~ sample;
#X obj 23 192 phasor~ 1, f 15;
#X obj 149 192 r s1_sampsize;
#X obj 23 218 *~;
#X text 128 305 adsr;
#X text 129 219 on/off (0 = off);
#X obj 22 428 *~;
#X obj 99 428 *~;
#X obj 22 456 throw~ L;
#X obj 99 456 throw~ R;
#X obj 120 339 hsl 190 15 -1 1 0 1 empty s2_randomPan pan -2 -8 0 10
-257985 -1 -1 7881 1;
#X obj 117 363 expr if($f1<0 \, $f1+1 \, $f1) \; if($f1>0 \, $f1-1
\, $f1);
#X obj 303 406 abs;
#X obj 125 37 random 1000;
#X obj 125 65 / 1000;
#X obj 124 11 bng 15 250 50 0 empty s2_randomTime empty 17 7 0 10 -262144
-1 -1;
#X obj 23 36 random 1000;
#X obj 23 10 bng 15 250 50 0 empty s2_randomSpeed empty 17 7 0 10 -262144
-1 -1;
#X obj 23 69 / 500;
#X obj 23 103 - 1;
#X msg 125 105 \$1 400;
#X obj 23 162 line~;
#X obj 125 139 line;
#X msg 23 130 \$1 250;
#X obj 172 306 vline~;
#X obj 172 266 bng 15 250 50 0 empty s2_fire empty 17 7 0 10 -262144
-1 -1;
#X msg 172 284 0.8 20 \, 0.6 500 700 \, 0 300 720;
#X connect 0 0 7 0;
#X connect 0 0 8 0;
#X connect 1 0 0 0;
#X connect 2 0 4 0;
#X connect 3 0 4 1;
#X connect 4 0 1 0;
#X connect 7 0 9 0;
#X connect 8 0 10 0;
#X connect 11 0 12 0;
#X connect 12 0 8 1;
#X connect 12 1 13 0;
#X connect 13 0 7 1;
#X connect 14 0 15 0;
#X connect 15 0 21 0;
#X connect 16 0 14 0;
#X connect 17 0 19 0;
#X connect 18 0 17 0;
#X connect 19 0 20 0;
#X connect 20 0 24 0;
#X connect 21 0 23 0;
#X connect 22 0 2 0;
#X connect 23 0 2 1;
#X connect 24 0 22 0;
#X connect 25 0 0 1;
#X connect 26 0 27 0;
#X connect 27 0 25 0;
#X restore 86 180 pd sound2;
#N canvas 0 23 452 524 sound3 0;
#X obj 23 305 *~;
#X obj 23 245 tabread4~ sample;
#X obj 23 192 phasor~ 1, f 15;
#X obj 149 192 r s1_sampsize;
#X obj 23 218 *~;
#X text 128 305 adsr;
#X text 129 219 on/off (0 = off);
#X obj 22 428 *~;
#X obj 99 428 *~;
#X obj 22 456 throw~ L;
#X obj 99 456 throw~ R;
#X obj 120 339 hsl 190 15 -1 1 0 1 empty s3_randomPan pan -2 -8 0 10
-257985 -1 -1 4876 1;
#X obj 117 363 expr if($f1<0 \, $f1+1 \, $f1) \; if($f1>0 \, $f1-1
\, $f1);
#X obj 303 406 abs;
#X obj 125 37 random 1000;
#X obj 125 65 / 1000;
#X obj 124 11 bng 15 250 50 0 empty s3_randomTime empty 17 7 0 10 -262144
-1 -1;
#X obj 23 36 random 1000;
#X obj 23 10 bng 15 250 50 0 empty s3_randomSpeed empty 17 7 0 10 -262144
-1 -1;
#X obj 23 69 / 500;
#X obj 23 103 - 1;
#X msg 125 105 \$1 400;
#X obj 23 162 line~;
#X obj 125 139 line;
#X msg 23 130 \$1 250;
#X obj 172 306 vline~;
#X obj 172 266 bng 15 250 50 0 empty s3_fire empty 17 7 0 10 -262144
-1 -1;
#X msg 172 284 0.8 20 \, 0.6 500 700 \, 0 300 720;
#X connect 0 0 7 0;
#X connect 0 0 8 0;
#X connect 1 0 0 0;
#X connect 2 0 4 0;
#X connect 3 0 4 1;
#X connect 4 0 1 0;
#X connect 7 0 9 0;
#X connect 8 0 10 0;
#X connect 11 0 12 0;
#X connect 12 0 8 1;
#X connect 12 1 13 0;
#X connect 13 0 7 1;
#X connect 14 0 15 0;
#X connect 15 0 21 0;
#X connect 16 0 14 0;
#X connect 17 0 19 0;
#X connect 18 0 17 0;
#X connect 19 0 20 0;
#X connect 20 0 24 0;
#X connect 21 0 23 0;
#X connect 22 0 2 0;
#X connect 23 0 2 1;
#X connect 24 0 22 0;
#X connect 25 0 0 1;
#X connect 26 0 27 0;
#X connect 27 0 25 0;
#X restore 158 180 pd sound3;
#N canvas 0 23 452 524 sound4 0;
#X obj 23 305 *~;
#X obj 23 245 tabread4~ sample;
#X obj 23 192 phasor~ 1, f 15;
#X obj 149 192 r s1_sampsize;
#X obj 23 218 *~;
#X text 128 305 adsr;
#X text 129 219 on/off (0 = off);
#X obj 22 428 *~;
#X obj 99 428 *~;
#X obj 22 456 throw~ L;
#X obj 99 456 throw~ R;
#X obj 120 339 hsl 190 15 -1 1 0 1 empty s4_randomPan pan -2 -8 0 10
-257985 -1 -1 1852 1;
#X obj 117 363 expr if($f1<0 \, $f1+1 \, $f1) \; if($f1>0 \, $f1-1
\, $f1);
#X obj 303 406 abs;
#X obj 125 37 random 1000;
#X obj 125 65 / 1000;
#X obj 124 11 bng 15 250 50 0 empty s4_randomTime empty 17 7 0 10 -262144
-1 -1;
#X obj 23 36 random 1000;
#X obj 23 10 bng 15 250 50 0 empty s4_randomSpeed empty 17 7 0 10 -262144
-1 -1;
#X obj 23 69 / 500;
#X obj 23 103 - 1;
#X msg 125 105 \$1 400;
#X obj 23 162 line~;
#X obj 125 139 line;
#X msg 23 130 \$1 250;
#X obj 172 306 vline~;
#X obj 172 266 bng 15 250 50 0 empty s4_fire empty 17 7 0 10 -262144
-1 -1;
#X msg 172 284 0.6 2500 \, 0.3 1500 2500 \, 0 6000 5000;
#X connect 0 0 7 0;
#X connect 0 0 8 0;
#X connect 1 0 0 0;
#X connect 2 0 4 0;
#X connect 3 0 4 1;
#X connect 4 0 1 0;
#X connect 7 0 9 0;
#X connect 8 0 10 0;
#X connect 11 0 12 0;
#X connect 12 0 8 1;
#X connect 12 1 13 0;
#X connect 13 0 7 1;
#X connect 14 0 15 0;
#X connect 15 0 21 0;
#X connect 16 0 14 0;
#X connect 17 0 19 0;
#X connect 18 0 17 0;
#X connect 19 0 20 0;
#X connect 20 0 24 0;
#X connect 21 0 23 0;
#X connect 22 0 2 0;
#X connect 23 0 2 1;
#X connect 24 0 22 0;
#X connect 25 0 0 1;
#X connect 26 0 27 0;
#X connect 27 0 25 0;
#X restore 230 180 pd sound4;
#X obj 114 78 bng 30 250 50 0 recordStart empty rec_start 0 -10 0 10
-4034 -1 -1;
#X obj 115 127 bng 30 250 50 0 recordStop empty rec_stop 0 -10 0 10
-4034 -1 -1;
#X obj 19 393 tgl 30 0 empty empty empty 17 7 0 10 -260097 -1 -1 0
1;
#X obj 17 225 bng 30 250 50 0 empty empty GO/STOP 0 -5 0 10 -258113
-1 -1;
#X obj 19 432 metro 5000;
#X obj 180 393 tgl 30 0 empty empty empty 17 7 0 10 -260097 -1 -1 0
1;
#X obj 180 432 metro 7500;
#X obj 350 398 tgl 30 0 empty empty empty 17 7 0 10 -260097 -1 -1 0
1;
#X obj 350 437 metro 15000;
#X obj 525 399 tgl 30 0 empty empty empty 17 7 0 10 -260097 -1 -1 0
1;
#X obj 525 438 metro 23593;
#X obj 18 605 s s1_randomSpeed;
#X obj 42 574 s s2_randomTime;
#X obj 65 541 s s3_randomPan;
#X obj 19 464 t b b b;
#X obj 180 466 t b b b;
#X obj 179 612 s s2_randomSpeed;
#X obj 203 581 s s3_randomTime;
#X obj 226 548 s s1_randomPan;
#X obj 350 466 t b b b;
#X obj 349 612 s s3_randomSpeed;
#X obj 373 581 s s1_randomTime;
#X obj 396 548 s s2_randomPan;
#X obj 525 469 t b b b;
#X obj 523 610 s s4_randomSpeed;
#X obj 547 579 s s4_randomTime;
#X obj 570 546 s s4_randomPan;
#X obj 17 270 t b b b b b;
#X obj 407 176 tgl 30 0 empty empty empty 17 7 0 10 -260097 -1 -1 0
1;
#X obj 407 250 t b b;
#X obj 468 309 + 100;
#X obj 411 339 s s1_fire;
#X obj 563 181 tgl 30 0 empty empty empty 17 7 0 10 -260097 -1 -1 0
1;
#X obj 563 255 t b b;
#X obj 624 314 + 100;
#X obj 408 136 t b b b b;
#X obj 567 344 s s2_fire;
#X obj 407 222 metro 2000;
#X obj 563 227 metro 3000;
#X obj 712 185 tgl 30 0 empty empty empty 17 7 0 10 -260097 -1 -1 0
1;
#X obj 712 259 t b b;
#X obj 773 318 + 100;
#X obj 468 281 random 10000;
#X obj 624 285 random 10000;
#X obj 773 290 random 10000;
#X obj 712 231 metro 2500;
#X obj 863 189 tgl 30 0 empty empty empty 17 7 0 10 -260097 -1 -1 0
1;
#X obj 863 263 t b b;
#X obj 924 322 + 100;
#X obj 924 294 random 10000;
#X obj 716 348 s s3_fire;
#X obj 867 352 s s4_fire;
#X obj 863 236 metro 5000;
#N canvas 0 23 450 300 randomPan 0;
#X obj 131 61 inlet;
#X obj 131 89 random 1000;
#X obj 131 116 / 500;
#X obj 131 146 - 1;
#X obj 131 177 outlet;
#X connect 0 0 1 0;
#X connect 1 0 2 0;
#X connect 2 0 3 0;
#X connect 3 0 4 0;
#X restore 65 499 pd randomPan;
#N canvas 0 23 450 300 randomPan 0;
#X obj 131 61 inlet;
#X obj 131 89 random 1000;
#X obj 131 116 / 500;
#X obj 131 146 - 1;
#X obj 131 177 outlet;
#X connect 0 0 1 0;
#X connect 1 0 2 0;
#X connect 2 0 3 0;
#X connect 3 0 4 0;
#X restore 226 504 pd randomPan;
#N canvas 0 23 450 300 randomPan 0;
#X obj 131 61 inlet;
#X obj 131 89 random 1000;
#X obj 131 116 / 500;
#X obj 131 146 - 1;
#X obj 131 177 outlet;
#X connect 0 0 1 0;
#X connect 1 0 2 0;
#X connect 2 0 3 0;
#X connect 3 0 4 0;
#X restore 397 505 pd randomPan;
#N canvas 0 23 450 300 randomPan 0;
#X obj 131 61 inlet;
#X obj 131 89 random 1000;
#X obj 131 116 / 500;
#X obj 131 146 - 1;
#X obj 131 177 outlet;
#X connect 0 0 1 0;
#X connect 1 0 2 0;
#X connect 2 0 3 0;
#X connect 3 0 4 0;
#X restore 571 505 pd randomPan;
#X connect 14 0 16 0;
#X connect 15 0 39 0;
#X connect 16 0 26 0;
#X connect 17 0 18 0;
#X connect 18 0 27 0;
#X connect 19 0 20 0;
#X connect 20 0 31 0;
#X connect 21 0 22 0;
#X connect 22 0 35 0;
#X connect 26 0 23 0;
#X connect 26 1 24 0;
#X connect 26 2 65 0;
#X connect 27 0 28 0;
#X connect 27 1 29 0;
#X connect 27 2 66 0;
#X connect 31 0 32 0;
#X connect 31 1 33 0;
#X connect 31 2 67 0;
#X connect 35 0 36 0;
#X connect 35 1 37 0;
#X connect 35 2 68 0;
#X connect 39 0 14 0;
#X connect 39 1 17 0;
#X connect 39 2 19 0;
#X connect 39 3 21 0;
#X connect 39 4 47 0;
#X connect 40 0 49 0;
#X connect 41 0 54 0;
#X connect 41 1 43 0;
#X connect 42 0 49 1;
#X connect 44 0 50 0;
#X connect 45 0 55 0;
#X connect 45 1 48 0;
#X connect 46 0 50 1;
#X connect 47 0 40 0;
#X connect 47 1 44 0;
#X connect 47 2 51 0;
#X connect 47 3 58 0;
#X connect 49 0 41 0;
#X connect 50 0 45 0;
#X connect 51 0 57 0;
#X connect 52 0 56 0;
#X connect 52 1 62 0;
#X connect 53 0 57 1;
#X connect 54 0 42 0;
#X connect 55 0 46 0;
#X connect 56 0 53 0;
#X connect 57 0 52 0;
#X connect 58 0 64 0;
#X connect 59 0 61 0;
#X connect 59 1 63 0;
#X connect 60 0 64 1;
#X connect 61 0 60 0;
#X connect 64 0 59 0;
#X connect 65 0 25 0;
#X connect 66 0 30 0;
#X connect 67 0 34 0;
#X connect 68 0 38 0;
